<?xml version="1.0" encoding="UTF-8"?>
<!DOCTYPE svg PUBLIC "-//W3C//DTD SVG 1.1//EN" "http://www.w3.org/Graphics/SVG/1.1/DTD/svg11.dtd">
<!-- Creator: CorelDRAW -->
<svg xmlns="http://www.w3.org/2000/svg" xml:space="preserve" width="298px" height="175px" version="1.1" shape-rendering="geometricPrecision" text-rendering="geometricPrecision" image-rendering="optimizeQuality" fill-rule="evenodd" clip-rule="evenodd"
viewBox="0 0 19110 11220"
 xmlns:xlink="http://www.w3.org/1999/xlink"
 xmlns:xodm="http://www.corel.com/coreldraw/odm/2003">
 <g id="Capa_x0020_1">
  <metadata id="CorelCorpID_0Corel-Layer"/>
  <g id="_1539741738496">
   <path fill="#FEFEFE" d="M9440 4630c-140,130 -380,240 -500,520 -290,660 530,1290 1340,870 130,-70 210,-170 310,-220 40,50 90,110 140,160 200,220 140,170 490,170 -150,-190 -350,-350 -490,-540 30,-100 120,-230 160,-370 30,-120 90,-330 50,-460 -290,-20 -180,20 -230,260l-120 360c0,0 0,10 -10,10l-760 -740c90,-120 490,-270 570,-610 170,-710 -1050,-910 -1280,-230 -140,420 290,680 330,820zm200 -150c130,-30 410,-280 470,-370 150,-240 -40,-470 -270,-500 -250,-40 -490,110 -510,320 -20,230 220,450 310,550zm780 1150c-220,-250 -660,-650 -790,-840 -200,50 -780,570 -340,990 140,120 380,190 630,150 200,-30 440,-180 500,-300z"/>
   <path fill="#FEFEFE" d="M4880 5090c-10,160 -30,350 50,460 570,820 1740,960 2550,490 730,-420 970,-1350 650,-2140 -260,-630 -1060,-1080 -1630,-1420 -400,-240 -900,-540 -1030,-1020 -180,-660 200,-1130 770,-1210 520,-80 1030,190 1300,600 30,50 10,50 60,60 20,-130 40,-330 -50,-420 -50,-60 -70,-80 -120,-130 -70,-70 -70,-60 -150,-110 -610,-440 -1810,-310 -2060,510 -390,1280 960,1800 1680,2280 380,250 860,600 1020,1030 420,1140 -520,2270 -1890,1940 -470,-110 -860,-420 -1080,-830 -10,-20 -10,-20 -20,-40 -40,-50 0,-20 -50,-50z"/>
   <path fill="#FEFEFE" d="M13760 11170l620 0c1090,0 1360,-1200 720,-1790 -320,-310 -880,-260 -1340,-260l0 2050zm280 -270l70 0 230 0c530,0 890,-320 810,-890 -80,-510 -550,-700 -1110,-620l0 1510z"/>
   <path fill="#FEFEFE" d="M12100 6190c230,10 2020,20 2140,-10l10 -210c-170,-60 -1790,30 -1860,-20 -60,-50 -30,-1290 -30,-1440 0,-490 30,-4270 0,-4400 -60,-20 -170,-10 -250,-10 -40,170 -10,4020 -10,4550 0,460 -40,1100 0,1540z"/>
   <path fill="#FEFEFE" d="M9670 11170l270 0 0 -1440c110,60 280,270 380,370 130,130 250,250 380,380l760 740 0 -2090 -280 -10 10 1470c-250,-190 -520,-540 -760,-770l-370 -380c-80,-80 -310,-350 -390,-380l0 2110z"/>
   <path fill="#FEFEFE" d="M17310 11170l270 0c30,-90 180,-500 240,-530l770 0c30,90 160,490 240,530l280 0 -890 -2130c-50,40 -860,1950 -910,2130zm590 -780l590 0 -290 -740 -300 740z"/>
   <polygon fill="#FEFEFE" points="6100,11170 7480,11170 7470,10900 6370,10900 6370,10270 7320,10260 7320,10000 6370,10000 6370,9390 7440,9390 7430,9120 6100,9120 "/>
   <path fill="#FEFEFE" d="M0 9390l540 0 0 1780 270 0 0 -1780c150,-20 400,-10 560,0l0 -270 -1370 0 0 270z"/>
   <polygon fill="#FEFEFE" points="3520,11160 3590,11170 3720,11170 3800,11170 3800,9120 3520,9120 "/>
  </g>
 </g>
</svg>

