<?xml version="1.0" encoding="UTF-8"?>
<!DOCTYPE svg PUBLIC "-//W3C//DTD SVG 1.1//EN" "http://www.w3.org/Graphics/SVG/1.1/DTD/svg11.dtd">
<!-- Creator: CorelDRAW -->
<svg xmlns="http://www.w3.org/2000/svg" xml:space="preserve" width="360px" height="360px" version="1.1" shape-rendering="geometricPrecision" text-rendering="geometricPrecision" image-rendering="optimizeQuality" fill-rule="evenodd" clip-rule="evenodd"
viewBox="0 0 28090 28090"
 xmlns:xlink="http://www.w3.org/1999/xlink"
 xmlns:xodm="http://www.corel.com/coreldraw/odm/2003">
 <g id="Capa_x0020_1">
  <metadata id="CorelCorpID_0Corel-Layer"/>
  <g id="_1539723082752">
   <path fill="#FEFEFE" d="M13900 10780c-170,160 -470,300 -610,640 -350,810 650,1580 1640,1060 160,-80 260,-210 380,-270 50,60 110,140 170,200 250,270 180,200 600,210 -180,-240 -420,-430 -590,-660 30,-130 140,-280 190,-460 40,-150 110,-400 60,-550 -350,-40 -230,10 -280,310l-140 440c-10,0 -10,10 -20,10l-930 -910c100,-140 590,-320 690,-740 210,-870 -1280,-1120 -1560,-280 -170,520 350,820 400,1000zm250 -180c150,-40 500,-340 570,-450 190,-300 -50,-580 -320,-620 -310,-40 -600,140 -630,400 -30,280 270,540 380,670zm950 1410c-270,-310 -800,-800 -970,-1030 -240,60 -950,700 -410,1200 170,160 470,240 770,190 250,-40 540,-220 610,-360z"/>
   <path fill="#FEFEFE" d="M8320 11350c-10,200 -30,420 60,550 700,1010 2140,1180 3130,610 890,-520 1180,-1660 790,-2620 -320,-780 -1300,-1330 -2000,-1740 -490,-290 -1100,-660 -1260,-1240 -210,-810 250,-1390 950,-1490 630,-90 1250,230 1580,740 50,60 20,60 90,70 20,-160 40,-400 -70,-520 -60,-70 -90,-90 -150,-150 -90,-90 -80,-70 -180,-140 -750,-540 -2210,-380 -2520,630 -480,1570 1180,2200 2060,2790 460,310 1050,720 1240,1260 520,1390 -630,2780 -2310,2370 -580,-140 -1050,-510 -1320,-1020 -10,-20 -10,-20 -30,-50 -50,-60 10,-10 -60,-50z"/>
   <path fill="#FEFEFE" d="M19190 18780l760 0c1330,0 1670,-1460 890,-2190 -410,-370 -1080,-320 -1650,-320l0 2510zm340 -330l90 10 280 0c650,0 1090,-400 990,-1100 -90,-610 -670,-850 -1360,-750l0 1840z"/>
   <path fill="#FEFEFE" d="M17160 12680c280,30 2470,40 2620,-10l0 -240c-200,-80 -2190,30 -2270,-40 -70,-50 -30,-1570 -30,-1760 0,-590 30,-5220 -10,-5380 -70,-20 -200,-20 -300,-10 -50,210 -20,4920 -20,5560 0,560 -40,1350 10,1880z"/>
   <path fill="#FEFEFE" d="M14180 18780l340 0 -10 -1750c140,70 350,320 470,450 160,160 300,300 460,470l930 900 0 -2560 -340 -10 10 1790c-300,-230 -640,-660 -920,-930l-460 -470c-100,-100 -370,-430 -480,-470l0 2580z"/>
   <path fill="#FEFEFE" d="M23530 18780l340 0c30,-100 210,-600 290,-650l940 0c40,120 190,600 290,650l350 0 -1090 -2600c-60,50 -1050,2380 -1120,2600zm720 -950l730 0 -350 -900 -380 900z"/>
   <polygon fill="#FEFEFE" points="9810,18780 11500,18780 11500,18460 10150,18460 10150,17680 11310,17680 11310,17360 10150,17350 10150,16600 11450,16600 11450,16270 9810,16280 "/>
   <path fill="#FEFEFE" d="M2350 16600l660 0 0 2180 340 0 0 -2170c180,-30 480,-10 670,-10l0 -330 -1670 0 0 330z"/>
   <polygon fill="#FEFEFE" points="6660,18770 6750,18790 6900,18780 7000,18780 7000,16280 6660,16280 "/>
  </g>
  <path fill="none" stroke="white" stroke-width="460" stroke-miterlimit="22.9256" d="M7970 1640c1670,-780 3400,-1320 5520,-1400 3050,-110 5700,690 8100,2230 360,230 700,470 1010,720l920 790c90,90 140,150 220,230l630 650c530,580 1050,1320 1470,1990 650,1020 1250,2410 1560,3640 990,3810 380,7900 -1770,11090 -240,360 -470,700 -720,1010 -140,170 -240,300 -390,460 -130,160 -250,320 -400,460 -410,410 -660,670 -1120,1060l-710 570c-670,480 -1320,900 -2150,1310 -3530,1770 -7700,1850 -11360,370 -1530,-620 -2550,-1320 -3740,-2300l-1310 -1280c-260,-340 -450,-510 -780,-960 -1590,-2210 -2590,-4710 -2710,-7660 -80,-2260 290,-3970 1030,-5850 320,-830 770,-1590 1200,-2260 700,-1100 1550,-2030 2510,-2890 50,-40 80,-60 130,-100l710 -570c300,-240 690,-490 1030,-700 340,-210 730,-430 1120,-610z"/>
 </g>
</svg>

